<svg version="1" xmlns="http://www.w3.org/2000/svg" width="417.333" height="417.333"
     viewBox="0 0 313.000000 313.000000">
    <path d="M144.5 13.6c-6 3.6-11.2 6.7-11.4 6.9-.2.2 2.8 4.7 6.5 9.9 3.8 5.2 8.7 12 10.9 15.1l4 5.6 8.6-17.8 8.6-17.8-7.5-4.3c-4.1-2.3-7.7-4.2-8.1-4.2-.3 0-5.5 3-11.6 6.6zM172.2 27.7C163.7 45.9 159 56.2 159 56.8c0 .4 6.1 9.3 13.5 19.7 7.4 10.5 15.1 21.4 17.2 24.4 2.1 2.9 4.5 6.2 5.3 7.3 1.6 2-.3 4.8 30.8-44.8 3.9-6.4 7-12 6.7-12.4-.3-.5-3.1-2.3-6.3-4.1-3.1-1.8-15.3-8.8-27-15.6-11.7-6.8-21.7-12.3-22.1-12.3-.4 0-2.6 3.9-4.9 8.7zM104 37c-12.4 7.1-23.6 13.6-25 14.5-1.4.8-13.6 7.9-27.2 15.7L27 81.4v6.1c0 6.5-.7 5.4 10.4 18 2.9 3.3 12.4 14.1 21.1 24 8.7 9.9 18.6 21.1 21.9 24.9 12.2 13.9 16 18.1 16.4 17.9.4-.2 8.2-16.5 17.9-37.3 2.8-6 6.8-14.4 17.5-37 2.2-4.7 5.7-12.1 7.8-16.5 2-4.4 5.3-11.4 7.4-15.7 2-4.2 3.6-7.9 3.6-8.2 0-.8-23-33.1-23.8-33.3-.4-.2-10.8 5.6-23.2 12.7zM230 68.5c-4.7 7.4-10 15.8-11.8 18.7-1.8 2.9-6.6 10.5-10.6 16.8l-7.4 11.5 5.6 8c3.1 4.4 6 8.4 6.5 9 1.3 1.7 43.9 61.7 47.7 67.3 1.9 2.8 3.9 5 4.4 4.9.8-.3 1.8-1.9 9.1-15.2 2.1-3.9 5.8-10.6 8.2-15l4.5-8-.1-40V83.7c-.1-1.7-.8-3-1.8-3.4-1-.4-7.4-4-14.2-8-6.7-4-12.4-7.3-12.5-7.3-.2 0-4.1-2.2-8.7-5-4.6-2.7-8.9-5-9.4-5-.6 0-4.9 6.1-9.5 13.5zM152.8 69.2c-1.5 2.9-6.3 13.2-10.8 22.8-4.6 9.6-11.6 24.4-15.6 32.9-4.1 8.4-7.4 15.5-7.4 15.6 0 .2-3.9 8.3-8.6 18.1-4.8 9.9-8.7 18.4-8.7 19 0 1.4 29.6 35.3 30.4 34.8.4-.2 9.4-14.5 20-31.6 10.6-17.2 24.1-39 30-48.5l10.7-17.2-17.9-24.8C165.1 76.7 157 65.2 157 64.8c0-2.3-2-.2-4.2 4.4zM27 167.8v63.8l16.1 9.2c12.6 7.2 16.5 9 17.5 8.1.8-.6 1.4-1.5 1.4-1.9 0-.5 3-7 6.6-14.7 3.6-7.6 7.9-16.5 9.4-19.8 1.6-3.3 5.8-12.2 9.3-19.7l6.6-13.7-4.7-5.3c-2.6-2.9-4.9-5.5-5.2-5.8-.3-.3-6.8-7.7-14.4-16.5-7.7-8.8-14.4-16.5-15-17-.6-.6-6.9-7.6-13.9-15.8-7.1-8.1-13-14.7-13.3-14.7-.2 0-.4 28.7-.4 63.8zM169.5 164.7c-14.7 23.6-28 44.6-29.4 46.8-1.5 2.2-3 4.5-3.4 5.2-.6 1 6.1 9.6 15.3 19.4 1.7 1.8 12.6 14.1 18 20.3 1.9 2.3 4 4.6 4.6 5.2.6.7 5.3 6 10.4 11.8 5.1 5.8 9.5 10.6 9.7 10.6.2 0 9.2-5.1 19.9-11.2l19.4-11.3 10.7-19.5c5.9-10.7 12-21.9 13.5-24.8l2.9-5.3-18.2-25.7c-10.1-14.1-18.5-25.9-18.8-26.2-.3-.3-1-1.3-1.6-2.2-2.3-3.9-25-35.7-25.6-35.7-.3-.1-12.7 19.1-27.4 42.6zM282.6 185.9c-1.5 2.8-3.4 6.6-4.4 8.3-1 1.8-3.6 6.3-5.6 10.1-2.1 3.7-3.6 7.4-3.3 8.1 1.3 3.2 14 19.6 15.3 19.6 1.6 0 1.6-.5 1.5-30.9-.1-10.7-.3-19.6-.5-19.9-.3-.2-1.6 1.9-3 4.7zM93.6 194.2c-2.4 5.1-6.3 13.3-8.6 18.3-2.4 4.9-7.4 15.5-11.1 23.5-3.8 8-7.3 15.2-7.7 16-.9 1.5 2 3.7 15.6 11.1 3.1 1.7 7.5 4.2 9.7 5.5l4 2.3 5.4-8.7c3-4.8 10.4-16.5 16.4-26 12-19.1 11.7-17.4 5.5-24.3-8-9-15.1-17.1-18.9-21.6-2.4-2.8-4.7-5.2-5.2-5.2-.4-.1-2.7 4.1-5.1 9.1zM263.1 221.6c-1.2 1.9-2.1 3.7-2.1 3.9 0 .3-2 3.9-4.5 8.1-2.5 4.1-4.5 7.8-4.5 8.1 0 .2-1.6 3.2-3.5 6.5-2 3.3-3.5 6.2-3.3 6.3.3.3 27.2-14.9 31.6-17.8 1.1-.8-2.1-6.1-9.9-16.5l-1.7-2.2-2.1 3.6zM125.5 234.7c-3.6 6-10.6 17.1-15.5 24.8-6.7 10.5-8.6 14.3-7.7 15.1 1.1 1 33.7 20 46.2 27 2.8 1.5 5.7 3.1 6.5 3.6 1.1.7 5.8-1.5 17.5-8.2 8.8-5 16.1-9.3 16.3-9.4.2-.3-7.2-9.1-13.2-15.6-1.8-1.9-8.1-9.1-14.2-16-6-6.9-11.3-13-11.9-13.6-5.9-6.4-14.2-15.9-14.8-17-.4-.8-1.2-1.4-1.7-1.4s-3.8 4.8-7.5 10.7z"/>
</svg>