<svg xmlns="http://www.w3.org/2000/svg" xmlns:xlink="http://www.w3.org/1999/xlink" width="672.532" height="738.394">
    <path d="M467 149.804c-46.62-7.44-99.71-11.41-155-11.41-50.6 0-99.35 3.32-142.98 9.58l.05-2.01C171.475 65.081 237.996.903 318.914 1.397S465.563 66.878 466.98 147.784l.02 2.02z"
          fill="#303841"/>
    <path d="M337.55 1.341A149.05 149.05 0 0 0 168.619 144.57l-.05 2.01c12.962-1.86 26.385-3.453 40.165-4.784C212.212 70.051 266.373 10.996 337.55 1.341z"
          fill="#fff" opacity=".1"/>
    <g fill="#3f3d56">
        <path d="M532.18 161.624a600.12 600.12 0 0 0-65.2-13.84c-36.014-5.581-72.322-9.07-108.74-10.45-15.17-.62-30.62-.94-46.24-.94-12.38 0-24.66.2-36.77.6a973.29 973.29 0 0 0-106.16 8.97 624.29 624.29 0 0 0-77.25 15.66C32.61 177.994 0 199.934 0 223.394s32.61 45.4 91.82 61.77c41.64 11.52 92.98 19.37 148.92 22.97 23.09 1.5 46.96 2.26 71.26 2.26 24.38 0 48.33-.77 71.49-2.27 50.91-3.29 98.01-10.1 137.43-20 .21-.06.41-.11.62-.16l7.87-2.04 2.77-.76a.98.98 0 0 1 .16-.05l2.62-.73 5.15-1.5c.08-.02.15-.04.22-.06l4.34-1.32 3.48-1.1q1.261-.405 2.49-.81l1.77-.59 2.36-.8.98-.34 2.21-.77 2.36-.85 1.94-.71 1.61-.61 4.33-1.68 2.12-.86 2.07-.86q1.679-.705 3.3-1.41c.52-.24 1.05-.47 1.56-.69l1.16-.53a21.12 21.12 0 0 0 .83-.38l2.99-1.4q5.64-2.7 10.53-5.52c20.45-11.71 31.24-24.7 31.24-38.2 0-23.46-32.61-45.4-91.82-61.77zm-.54 121.62c-41.69 11.53-93.17 19.38-149.26 22.95-22.81 1.45-46.39 2.2-70.38 2.2-23.91 0-47.41-.74-70.15-2.19-56.18-3.56-107.74-11.41-149.49-22.96C34.09 267.124 2 245.874 2 223.394a24.12 24.12 0 0 1 .74-5.89c5.1-20.28 36.47-39.26 89.62-53.96 25.202-6.789 50.806-11.989 76.66-15.57 35.408-4.954 71.062-7.958 106.8-9q17.881-.585 36.18-.58a1141.15 1141.15 0 0 1 45.63.91c36.63 1.368 73.149 4.874 109.37 10.5a598.86 598.86 0 0 1 64.64 13.74c53.14 14.7 84.5 33.67 89.61 53.94a23.82 23.82 0 0 1 .75 5.91c0 22.48-32.09 43.73-90.36 59.85z"/>
        <path d="M623.43 224.304c0 13.36-11.01 26-30.67 37.29-3.27 1.88-6.79 3.72-10.53 5.52l-2.99 1.4c-.27.13-.55.26-.83.38l-1.16.53-1.56.69q-1.62.705-3.3 1.41l-2.07.86-2.12.86-4.33 1.68-1.61.61-1.94.71-2.36.85-2.21.77c-.32.12-.65.23-.98.34l-2.36.8-1.77.59q-1.23.405-2.49.81l-3.48 1.1-4.34 1.32-.22.06-5.15 1.5-2.62.73a.98.98 0 0 0-.16.05l-2.77.76-7.87 2.04c-.21.05-.41.1-.62.16-38.35 9.58-85.4 16.56-137.47 19.93-22.81 1.47-46.59 2.25-71.02 2.25-24.65 0-48.63-.79-71.62-2.29-137.24-8.95-239.38-43.03-239.38-83.71a25.07 25.07 0 0 1 1.12-7.3c.06.17.12.33.19.5 14.27 37.48 115.54 67.77 246.94 75.16 20.13 1.14 40.98 1.73 62.32 1.73 21.43 0 42.36-.6 62.57-1.74 131.29-7.42 232.46-37.72 246.68-75.17q.36-.9.63-1.8a25.28 25.28 0 0 1 1.55 8.62zM91.669 213.54c-16.643 0-34.331-3.581-34.331-10.217s17.688-10.217 34.331-10.217S126 196.687 126 203.323s-17.688 10.217-34.331 10.217zm0-18.434c-19.053 0-32.331 4.331-32.331 8.217s13.278 8.217 32.331 8.217S124 207.209 124 203.323s-13.278-8.217-32.331-8.217zm71 65.434c-16.643 0-34.331-3.581-34.331-10.217s17.688-10.217 34.331-10.217S197 243.687 197 250.323s-17.688 10.217-34.331 10.217zm0-18.434c-19.053 0-32.331 4.331-32.331 8.217s13.278 8.217 32.331 8.217S195 254.209 195 250.323s-13.278-8.217-32.331-8.217zm369-28.566c-16.643 0-34.331-3.581-34.331-10.217s17.688-10.217 34.331-10.217S566 196.687 566 203.323s-17.688 10.217-34.331 10.217zm0-18.434c-19.053 0-32.331 4.331-32.331 8.217s13.278 8.217 32.331 8.217S564 207.209 564 203.323s-13.278-8.217-32.331-8.217zm-71 65.434c-16.643 0-34.331-3.581-34.331-10.217s17.688-10.217 34.331-10.217S495 243.687 495 250.323s-17.688 10.217-34.331 10.217zm0-18.434c-19.053 0-32.331 4.331-32.331 8.217s13.278 8.217 32.331 8.217S493 254.209 493 250.323s-13.278-8.217-32.331-8.217zm-149 40.434c-16.643 0-34.331-3.581-34.331-10.217s17.688-10.217 34.331-10.217S346 265.687 346 272.323s-17.688 10.217-34.331 10.217zm0-18.434c-19.053 0-32.331 4.331-32.331 8.217s13.278 8.217 32.331 8.217S344 276.209 344 272.323s-13.278-8.217-32.331-8.217z"/>
    </g>
    <g fill="#2f2e41">
        <circle cx="336.978" cy="450.704" r="42.012"/>
        <path d="M300.555 488.546l20.447-10.24 5.715 11.412-20.447 10.24z"/>
        <ellipse cx="563.82" cy="573.748" rx="3.989" ry="10.636"
                 transform="matrix(.550463 -.83486 .83486 .550463 -489.27546 647.82906)"/>
        <path d="M347.239 489.719l5.715-11.412 20.447 10.24-5.715 11.412z"/>
        <ellipse cx="637.604" cy="573.748" rx="10.636" ry="3.989"
                 transform="matrix(.83486 -.550463 .550463 .83486 -474.26735 364.92328)"/>
    </g>
    <circle cx="334.037" cy="440.428" r="14.359" fill="#fff"/>
    <ellipse cx="597.87" cy="515.084" rx="4.766" ry="4.8"
             transform="matrix(.707107 -.707107 .707107 .707107 -452.84172 492.81919)" fill="#3f3d56"/>
    <path d="M370.12 404.999c.632-15.554-12.773-28.728-29.941-29.425s-31.597 11.346-32.229 26.9 11.302 19.087 28.47 19.785 33.068-1.706 33.7-17.26z"
          fill="#303841"/>
    <g fill="#2f2e41">
        <ellipse cx="644.388" cy="537.568" rx="6.594" ry="21.006"
                 transform="matrix(.758758 -.651372 .651372 .758758 -458.4377 468.61755)"/>
        <ellipse cx="557.154" cy="537.568" rx="21.006" ry="6.594"
                 transform="matrix(.651372 -.758758 .758758 .651372 -477.37906 529.35274)"/>
    </g>
    <path d="M348.517 467.261c.947 5.201-2.502 10.185-7.703 11.132s-10.185-2.502-11.132-7.703l-.003-.019c-.942-5.202 3.08-7.043 8.283-7.985s9.614-.628 10.556 4.574z"
          fill="#fff"/>
    <g fill="#ccc">
        <path d="M266 495.394a2 2 0 0 1-2-2v-118a2 2 0 1 1 4 0v118a2 2 0 0 1-2 2zm-30 106a2 2 0 0 1-2-2v-86a2 2 0 1 1 4 0v86a2 2 0 0 1-2 2zm77-71a2 2 0 0 1-2-2v-118a2 2 0 1 1 4 0v118a2 2 0 0 1-2 2z"/>
        <use xlink:href="#B"/>
        <use xlink:href="#B" x="41" y="-246"/>
        <use xlink:href="#B" x="-59" y="-225"/>
        <use xlink:href="#B" x="115" y="-220"/>
        <path d="M395 545.394a2 2 0 0 1-2-2v-58a2 2 0 1 1 4 0v58a2 2 0 0 1-2 2zm-40 51a2 2 0 0 1-2-2v-86a2 2 0 1 1 4 0v86a2 2 0 0 1-2 2zm8-147a2 2 0 0 1-2-2v-118a2 2 0 1 1 4 0v118a2 2 0 0 1-2 2z"/>
    </g>
    <g fill="#2f2e41">
        <ellipse cx="858.104" cy="764.783" rx="6.76" ry="21.534"
                 transform="matrix(.766735 -.641963 .641963 .766735 -554.53185 648.46489)"/>
        <circle cx="812.297" cy="757.305" r="43.067"
                transform="matrix(.316228 -.948683 .948683 .316228 -426.75153 1207.63346)"/>
        <path d="M553.707 710.302h13.084v23.442h-13.084zm-26.167 0h13.084v23.442H527.54z"/>
        <ellipse cx="555.888" cy="734.016" rx="10.903" ry="4.089"/>
        <ellipse cx="529.72" cy="733.471" rx="10.903" ry="4.089"/>
    </g>
    <path d="M535.039 622.366c3.846-15.487 20.821-24.601 37.915-20.356s27.834 20.24 23.989 35.727-16.604 15.537-33.698 11.292-32.051-11.176-28.205-26.663z"
          fill="#ccc"/>
    <ellipse cx="763.788" cy="737.322" rx="6.76" ry="21.534"
             transform="matrix(.428529 -.903528 .903528 .428529 -493.44249 1030.65892)" fill="#2f2e41"/>
    <circle cx="542.124" cy="667.415" r="14.359" fill="#fff"/>
    <circle cx="536.222" cy="662.268" r="4.786" fill="#3f3d56"/>
    <circle cx="542" cy="697.394" r="6" fill="#fff"/>
    <path d="M671.532 738.394h-236a1 1 0 1 1 0-2h236a1 1 0 1 1 0 2z" fill="#3f3d56"/>
    <defs>
        <path id="B" d="M284 615.394a2 2 0 0 1-2-2v-48a2 2 0 1 1 4 0v48a2 2 0 0 1-2 2z"/>
    </defs>
</svg>